<svg version="1.1" id="Layer_1" xmlns="http://www.w3.org/2000/svg" xmlns:xlink="http://www.w3.org/1999/xlink" x="0px" y="0px"
	 width="100%" viewBox="0 0 595 565" enable-background="new 0 0 595 565" xml:space="preserve">
<path fill="#121212" opacity="1.000000" stroke="none" 
	d="
M344.000000,566.000000 
	C229.333328,566.000000 115.166664,566.000000 1.000000,566.000000 
	C1.000000,377.666656 1.000000,189.333328 1.000000,1.000000 
	C199.333328,1.000000 397.666656,1.000000 596.000000,1.000000 
	C596.000000,189.333328 596.000000,377.666656 596.000000,566.000000 
	C512.166687,566.000000 428.333344,566.000000 344.000000,566.000000 
M143.491806,242.597473 
	C144.320374,241.731735 145.148926,240.865997 146.123505,239.211639 
	C145.824265,237.412933 145.525040,235.614212 145.119202,233.104340 
	C142.418518,229.741776 139.717834,226.379211 136.573013,222.474396 
	C134.084183,221.706223 131.595367,220.938049 128.533569,219.686691 
	C124.192863,218.124008 123.626434,220.262695 124.488762,223.808319 
	C124.984818,225.847977 125.474289,227.889206 125.436592,230.188858 
	C124.734497,230.531372 124.032402,230.873886 122.733871,230.794907 
	C121.156502,229.401199 118.978264,228.300949 118.124939,226.553665 
	C116.261505,222.738068 114.188377,222.856964 111.751991,225.561188 
	C110.276215,227.199158 109.252731,229.244614 107.575874,231.681885 
	C107.373695,234.853653 107.171516,238.025406 106.915382,241.838730 
	C106.921593,242.268127 106.927803,242.697540 106.954788,243.859375 
	C108.501060,247.016373 110.047325,250.173370 111.593597,253.330368 
	C112.067123,253.126373 112.540649,252.922394 113.014175,252.718399 
	C113.014175,249.474472 113.014175,246.230545 113.785469,242.799942 
	C115.105255,242.748444 116.425049,242.696930 118.610619,242.753922 
	C119.772606,242.764282 120.934593,242.774643 122.067513,242.910416 
	C122.067513,242.910416 122.026840,243.032562 121.962173,243.856506 
	C122.218727,246.609451 121.058083,249.823517 126.173111,249.864410 
	C128.265930,249.881134 130.333603,253.042938 132.801834,255.097931 
	C131.645538,256.073334 130.115601,257.363892 128.386749,258.822235 
	C130.211853,259.536774 131.740677,260.135315 133.269516,260.733856 
	C132.543579,259.989288 131.817657,259.244751 131.091736,258.500183 
	C133.763489,257.121185 136.435242,255.742172 139.745758,254.268494 
	C143.846909,253.995773 143.959732,251.035080 143.967514,247.251022 
	C143.601639,245.788544 143.235748,244.326065 142.788864,242.708191 
	C142.788864,242.708191 142.798370,242.533203 143.491806,242.597473 
M156.118561,325.187256 
	C156.126266,324.532532 156.133972,323.877808 156.666245,323.122437 
	C156.826630,323.045105 156.987000,322.967773 157.898056,323.029755 
	C158.908401,323.123444 159.918732,323.217133 161.084335,323.683990 
	C161.261856,323.908966 161.493271,324.034912 162.009399,324.927856 
	C161.662521,328.300812 161.765060,331.801544 160.851746,335.013428 
	C159.780075,338.782257 161.524979,340.282745 164.488754,339.780457 
	C168.447311,339.109467 172.229645,337.398651 176.623718,336.029907 
	C177.087265,335.539917 177.550827,335.049927 178.615982,334.144836 
	C180.531021,331.097229 182.446075,328.049652 184.658401,324.513824 
	C184.733704,323.952271 184.809021,323.390747 184.953094,322.131653 
	C184.922028,321.433075 184.890976,320.734497 185.271927,319.512817 
	C185.083557,312.227234 182.872772,306.115723 175.346954,302.316101 
	C170.455643,299.815857 165.483994,298.314789 159.403275,301.025391 
	C157.236694,302.391632 155.070114,303.757874 152.275803,305.350189 
	C149.008224,307.955994 145.277267,310.318237 146.899963,315.483032 
	C146.899963,315.483032 146.860794,315.458832 146.274094,315.693085 
	C145.909286,316.411469 145.544464,317.129822 145.015091,318.657623 
	C145.318100,320.736694 145.621109,322.815765 145.898666,325.638947 
	C147.934402,328.394043 149.970139,331.149139 152.459534,334.427765 
	C154.031281,335.702118 155.603027,336.976501 157.174774,338.250885 
	C157.431198,337.924774 157.687622,337.598633 157.944046,337.272522 
	C157.337906,333.462463 156.731750,329.652374 156.118561,325.187256 
M529.525269,148.850418 
	C531.373352,148.186783 533.221375,147.523132 535.754028,146.960709 
	C537.494385,145.966003 539.234741,144.971298 541.613159,143.735245 
	C543.659851,140.211380 546.497742,136.898819 547.512390,133.099350 
	C548.383667,129.836838 549.549011,125.398186 544.880188,122.217415 
	C544.792114,121.992195 544.704102,121.766983 545.135925,121.457375 
	C546.059814,115.777679 539.026733,109.595840 532.672729,110.196899 
	C530.218628,109.248650 527.764465,108.300400 524.573730,107.067520 
	C524.369812,110.641975 524.241516,112.890633 523.988220,115.997475 
	C524.029175,118.311996 524.070068,120.626518 523.282104,122.821945 
	C518.794678,122.258369 514.307312,121.694794 509.822571,121.131546 
	C509.615662,122.678879 509.494659,124.445923 509.130005,126.161171 
	C507.571503,133.492401 509.538605,139.617432 515.680420,143.962585 
	C518.174377,145.726974 521.251465,146.667145 524.701294,148.247467 
	C526.055359,148.445999 527.409485,148.644531 529.525269,148.850418 
M287.331451,162.462448 
	C285.879425,165.564926 287.349152,167.489044 290.062866,168.645355 
	C292.294952,169.596420 294.666565,170.219940 297.469330,171.143158 
	C297.635132,171.189728 297.800903,171.236298 298.462372,171.617767 
	C299.636353,171.605484 300.810333,171.593216 302.743225,171.557556 
	C303.784637,170.899734 304.826050,170.241913 306.300446,169.950653 
	C309.180511,168.706253 312.060547,167.461868 315.662567,165.905533 
	C312.896057,164.007126 311.461487,163.022705 310.877350,161.998062 
	C312.954834,161.666367 315.032318,161.334671 317.691406,160.585464 
	C323.492798,150.805237 319.034973,138.258209 307.782867,133.280289 
	C301.123596,131.074448 297.972351,131.760239 296.234589,136.570480 
	C296.533020,138.399902 296.831421,140.229324 297.156281,142.220871 
	C291.101868,142.441986 291.674652,137.453629 289.723816,133.848846 
	C287.840393,135.888275 286.329620,137.524185 284.254425,139.477768 
	C279.423218,144.961502 279.200592,151.254379 281.018463,157.905807 
	C281.890533,161.096603 283.749817,162.665573 287.334290,161.628250 
	C287.334290,161.628250 287.435425,161.750412 287.331451,162.462448 
M233.189117,414.493866 
	C239.260849,418.175964 245.552338,418.978088 252.825745,415.919830 
	C256.632812,413.561676 260.056152,410.906647 261.064056,405.588226 
	C265.659485,400.997925 265.169037,398.198578 259.379181,395.971863 
	C253.541565,393.726776 253.150711,392.207001 257.045380,387.078949 
	C257.319824,386.717590 257.372101,386.187531 257.762726,385.053650 
	C256.133301,384.678131 254.663223,384.339325 253.217957,383.370392 
	C253.096542,382.089264 253.411560,380.482666 252.754227,379.601196 
	C251.696075,378.182281 249.996201,377.241974 249.167267,376.579102 
	C242.417923,378.572998 234.359604,376.977112 229.426865,384.352448 
	C224.500290,390.008881 222.335144,396.259979 225.117279,404.291443 
	C225.982361,408.811829 228.144135,412.313293 233.189117,414.493866 
M427.107697,363.303802 
	C420.028900,363.592499 412.325348,365.417877 409.175873,356.016541 
	C409.152283,355.946167 408.872742,355.961548 408.712708,355.936859 
	C405.212830,364.319611 408.187042,374.460297 415.647583,378.955994 
	C416.717194,379.600494 418.332031,379.340210 420.414520,380.016876 
	C422.585480,383.639191 425.349518,382.730652 428.850464,381.610687 
	C430.143219,381.716217 431.543854,382.199219 432.711029,381.865509 
	C439.773743,379.846161 444.440887,375.200470 446.358154,368.134399 
	C448.256714,361.137421 446.856934,354.663971 441.964844,349.223022 
	C441.152527,348.319580 439.371887,348.286835 438.008942,347.180267 
	C436.938690,346.279083 435.981476,345.084137 434.747192,344.609161 
	C434.187744,344.393860 432.264130,345.770782 432.339905,346.148010 
	C433.623322,352.535950 430.992767,357.859589 427.107697,363.303802 
M372.871826,268.582977 
	C372.551819,273.099915 371.263031,277.812897 372.128723,282.089844 
	C373.590942,289.313873 380.826996,294.167145 388.400024,294.431885 
	C394.861786,294.657776 403.703125,289.709381 405.862671,284.658264 
	C409.484283,276.187500 405.768646,265.287781 397.728638,260.797363 
	C389.015961,255.931259 379.453064,258.689941 372.871826,268.582977 
M262.872742,67.024429 
	C266.717377,66.323990 270.948090,66.411697 274.325500,64.757347 
	C281.139832,61.419479 288.050323,60.084194 296.027374,61.291531 
	C293.440857,57.204769 290.250000,58.004040 287.011230,58.693993 
	C283.941254,59.347977 280.835236,59.832813 277.745087,60.392036 
	C277.637695,60.008110 277.530334,59.624184 277.422974,59.240253 
	C278.349884,58.367836 279.276825,57.495419 280.203735,56.623001 
	C280.094818,56.163700 279.985870,55.704403 279.876953,55.245102 
	C273.186401,55.646820 266.495850,56.048534 259.805298,56.450253 
	C262.741333,57.898262 265.757935,58.768822 268.748840,58.688049 
	C273.328064,58.564381 273.320557,58.286053 273.360046,61.329269 
	C266.847717,62.556499 260.543396,63.744526 254.051086,64.967979 
	C257.153748,67.308426 259.551910,69.117462 262.664124,71.465126 
	C262.434692,69.038010 262.347778,68.118614 262.872742,67.024429 
M426.471771,350.028046 
	C424.146271,348.843872 421.820770,347.659698 418.870178,346.157227 
	C420.083344,354.078339 422.414734,356.003082 428.337555,354.732697 
	C427.837555,353.339600 427.349884,351.980957 426.471771,350.028046 
M474.896881,214.927917 
	C475.474335,216.207733 476.051788,217.487549 476.662659,218.841385 
	C482.506622,214.955444 481.804565,212.931046 472.033813,206.969498 
	C472.913605,209.409988 473.793365,211.850479 474.896881,214.927917 
M216.822403,73.424248 
	C218.010101,74.296852 219.197784,75.169456 220.692902,76.267929 
	C221.351852,70.033218 221.351852,70.033218 216.951370,69.792000 
	C217.087326,70.834747 217.219467,71.848244 216.822403,73.424248 
M143.333130,78.218491 
	C143.107819,79.294601 142.882523,80.370712 142.657211,81.446815 
	C143.125061,81.519440 143.592911,81.592064 144.060776,81.664688 
	C143.987854,80.719666 143.914948,79.774651 143.333130,78.218491 
M223.807755,73.605202 
	C223.461334,73.109940 223.114914,72.614685 222.768478,72.119431 
	C222.976624,73.305626 223.184784,74.491814 223.392944,75.678009 
	C223.619156,75.232033 223.845367,74.786057 223.807755,73.605202 
M387.313477,142.329559 
	C387.713440,142.774490 388.113434,143.219406 388.513397,143.664337 
	C388.680267,143.455780 389.019196,143.098358 388.987457,143.061630 
	C388.659912,142.683044 388.272461,142.356293 387.313477,142.329559 
M513.015442,206.455170 
	C513.162659,206.876160 513.309937,207.297150 513.457153,207.718155 
	C513.913086,207.283875 514.369019,206.849609 514.824951,206.415329 
	C514.402527,206.280182 513.980164,206.145050 513.015442,206.455170 
M143.422318,256.541534 
	C142.774643,256.372345 142.126984,256.203125 141.479309,256.033936 
	C141.433395,256.259857 141.387466,256.485809 141.341537,256.711731 
	C141.877884,256.786285 142.414215,256.860840 143.422318,256.541534 
M369.038391,132.519699 
	C369.462433,132.670670 369.886475,132.821655 370.310516,132.972626 
	C370.340302,132.619232 370.370087,132.265854 370.399872,131.912460 
	C369.943939,131.883911 369.487976,131.855362 369.038391,132.519699 
M501.951874,253.620026 
	C502.168945,253.244965 502.385986,252.869888 502.603058,252.494827 
	C502.200256,252.416519 501.797485,252.338196 501.394653,252.259872 
	C501.379028,252.794205 501.363403,253.328552 501.951874,253.620026 
M259.503174,59.543015 
	C259.503174,59.543015 259.475464,59.484268 259.503174,59.543015 
z"/>
<path fill="#0C1528" opacity="1.000000" stroke="none" 
	d="
M225.279449,403.611389 
	C222.335144,396.259979 224.500290,390.008881 229.842529,384.494690 
	C234.682205,387.612671 239.106247,390.588409 243.629379,393.630798 
	C247.104935,390.248016 253.085342,390.143890 253.193146,384.000549 
	C254.663223,384.339325 256.133301,384.678131 257.762726,385.053650 
	C257.372101,386.187531 257.319824,386.717590 257.045380,387.078949 
	C253.150711,392.207001 253.541565,393.726776 259.379181,395.971863 
	C265.169037,398.198578 265.659485,400.997925 260.372925,405.851562 
	C258.051880,406.453430 256.421997,406.791931 254.724701,406.750305 
	C247.705750,401.408447 240.208649,403.912445 232.495651,404.564148 
	C229.866364,404.105896 227.572906,403.858643 225.279449,403.611389 
z"/>
<path fill="#D09139" opacity="1.000000" stroke="none" 
	d="
M419.694550,379.498657 
	C418.332031,379.340210 416.717194,379.600494 415.647583,378.955994 
	C408.187042,374.460297 405.212830,364.319611 408.712708,355.936859 
	C408.872742,355.961548 409.152283,355.946167 409.175873,356.016541 
	C412.325348,365.417877 420.028900,363.592499 428.025970,363.306366 
	C432.856384,363.308929 436.768494,363.308929 441.342010,363.308929 
	C439.927795,357.952393 442.309448,352.416626 436.735718,349.221069 
	C437.170044,348.764618 437.604370,348.308167 438.038696,347.851746 
	C439.371887,348.286835 441.152527,348.319580 441.964844,349.223022 
	C446.856934,354.663971 448.256714,361.137421 446.358154,368.134399 
	C444.440887,375.200470 439.773743,379.846161 432.711029,381.865509 
	C431.543854,382.199219 430.143219,381.716217 428.627747,381.060730 
	C430.070343,375.087341 429.247772,370.220764 425.035675,365.698059 
	C421.169922,361.829041 417.940704,363.532043 415.079041,366.475891 
	C412.493256,369.136017 412.852020,372.294556 414.882263,375.015564 
	C416.197937,376.778870 418.208344,378.023804 419.873291,379.484802 
	C419.839142,379.468628 419.694550,379.498657 419.694550,379.498657 
z"/>
<path fill="#C09D82" opacity="1.000000" stroke="none" 
	d="
M317.109802,161.002960 
	C315.032318,161.334671 312.954834,161.666367 310.034058,161.925064 
	C307.490448,161.938934 305.790100,162.025818 303.616028,162.136902 
	C304.489319,165.025574 305.178375,167.304825 305.867462,169.584076 
	C304.826050,170.241913 303.784637,170.899734 302.011566,171.336182 
	C300.175507,171.170853 299.071106,171.226868 297.966705,171.282883 
	C297.800903,171.236298 297.635132,171.189728 297.236969,170.683655 
	C298.738647,167.926498 300.472656,165.628860 302.345062,163.147888 
	C297.743256,162.716568 292.589325,162.233490 287.435425,161.750412 
	C287.435425,161.750412 287.334290,161.628250 287.402100,161.308334 
	C287.963440,158.322128 288.457001,155.655853 289.198425,152.772903 
	C289.718384,152.212387 289.990540,151.868530 290.656891,151.640808 
	C294.416748,151.698868 297.782410,151.640808 301.453522,151.651917 
	C302.163757,151.822906 302.568512,151.924744 302.982147,152.292999 
	C303.240692,152.773743 303.490387,152.988083 303.740082,153.202438 
	C303.585266,152.712753 303.430481,152.223068 303.284454,151.359985 
	C303.947998,146.859512 304.602753,142.732452 305.062195,139.836502 
	C301.542206,138.247101 298.845825,137.029572 296.149445,135.812057 
	C297.972351,131.760239 301.123596,131.074448 307.903992,134.002563 
	C308.754089,138.369827 309.483032,142.014832 309.882568,144.012573 
	C312.045502,146.994781 313.860321,148.665878 314.613251,150.725189 
	C315.816254,154.015549 316.313934,157.563766 317.109802,161.002960 
z"/>
<path fill="#BECAD6" opacity="1.000000" stroke="none" 
	d="
M160.168076,301.095764 
	C165.483994,298.314789 170.455643,299.815857 175.256165,302.837524 
	C170.423431,309.089752 166.080872,315.018829 165.459824,323.286621 
	C168.230759,323.286621 170.960526,323.286621 173.427917,323.286621 
	C174.383835,327.904175 175.235733,332.019287 176.087646,336.134399 
	C172.229645,337.398651 168.447311,339.109467 164.488754,339.780457 
	C161.524979,340.282745 159.780075,338.782257 160.851746,335.013428 
	C161.765060,331.801544 161.662521,328.300812 161.889679,324.254395 
	C161.566727,323.250977 161.286438,323.160950 160.929077,323.310822 
	C159.918732,323.217133 158.908401,323.123444 157.606598,322.619904 
	C158.518234,316.815521 159.721344,311.420990 160.863007,305.663818 
	C160.590393,303.899384 160.379227,302.497589 160.168076,301.095764 
z"/>
<path fill="#CCEC6D" opacity="1.000000" stroke="none" 
	d="
M373.018005,268.233337 
	C379.453064,258.689941 389.015961,255.931259 397.728638,260.797363 
	C405.768646,265.287781 409.484283,276.187500 405.862671,284.658264 
	C403.703125,289.709381 394.861786,294.657776 388.400024,294.431885 
	C380.826996,294.167145 373.590942,289.313873 372.128723,282.089844 
	C371.263031,277.812897 372.551819,273.099915 373.018005,268.233337 
M395.776764,288.611328 
	C401.886414,284.785767 404.251617,278.950104 402.306702,272.500275 
	C400.276855,265.768829 395.662262,262.732086 387.861053,262.993958 
	C381.305969,263.213989 376.678101,267.066681 375.338806,273.725891 
	C374.358063,278.602539 375.497314,283.142517 379.187561,286.520660 
	C383.812927,290.754913 389.331940,290.968658 395.776764,288.611328 
z"/>
<path fill="#473933" opacity="1.000000" stroke="none" 
	d="
M176.355682,336.082153 
	C175.235733,332.019287 174.383835,327.904175 173.427917,323.286621 
	C170.960526,323.286621 168.230759,323.286621 165.459824,323.286621 
	C166.080872,315.018829 170.423431,309.089752 175.402374,303.139465 
	C182.872772,306.115723 185.083557,312.227234 184.793243,319.563599 
	C183.308792,317.506927 182.303009,315.399475 180.854095,312.363525 
	C180.486664,316.315796 180.205399,319.341431 179.881149,322.829193 
	C182.016159,322.829193 183.450241,322.829193 184.884338,322.829193 
	C184.809021,323.390747 184.733704,323.952271 184.094055,324.745178 
	C177.016815,325.480835 177.959839,330.276062 178.014374,334.559937 
	C177.550827,335.049927 177.087265,335.539917 176.355682,336.082153 
z"/>
<path fill="#262D2A" opacity="1.000000" stroke="none" 
	d="
M524.063171,147.982361 
	C521.251465,146.667145 518.174377,145.726974 515.680420,143.962585 
	C509.538605,139.617432 507.571503,133.492401 509.130005,126.161171 
	C509.494659,124.445923 509.615662,122.678879 509.822571,121.131546 
	C514.307312,121.694794 518.794678,122.258369 523.944641,122.955399 
	C524.766602,123.154167 524.925964,123.219475 525.033203,123.733459 
	C525.007019,129.745514 525.032837,135.308868 524.959900,141.257935 
	C524.595154,143.756546 524.329163,145.869446 524.063171,147.982361 
M512.007690,126.703964 
	C512.088379,127.913612 512.169067,129.123260 512.249756,130.332916 
	C514.343384,130.124451 516.437012,129.915985 518.530640,129.707520 
	C518.577820,129.070984 518.625061,128.434433 518.672302,127.797897 
	C516.546875,127.232582 514.421509,126.667267 512.007690,126.703964 
z"/>
<path fill="#BBDCF7" opacity="1.000000" stroke="none" 
	d="
M253.205551,383.685455 
	C253.085342,390.143890 247.104935,390.248016 243.629379,393.630798 
	C239.106247,390.588409 234.682205,387.612671 230.129517,384.311951 
	C234.359604,376.977112 242.417923,378.572998 249.167267,376.579102 
	C249.996201,377.241974 251.696075,378.182281 252.754227,379.601196 
	C253.411560,380.482666 253.096542,382.089264 253.205551,383.685455 
z"/>
<path fill="#BBDCF7" opacity="1.000000" stroke="none" 
	d="
M232.831482,404.775146 
	C240.208649,403.912445 247.705750,401.408447 254.387985,406.808350 
	C249.607727,409.266541 251.134323,412.662903 252.136917,415.939819 
	C245.552338,418.978088 239.260849,418.175964 232.996399,413.783936 
	C232.812943,410.307709 232.822220,407.541443 232.831482,404.775146 
z"/>
<path fill="#473933" opacity="1.000000" stroke="none" 
	d="
M302.973297,152.026581 
	C302.568512,151.924744 302.163757,151.822906 301.453278,151.330109 
	C298.987732,148.885468 296.827850,146.831772 294.435699,144.557205 
	C293.045715,146.877991 291.654205,149.201324 290.262695,151.524658 
	C289.990540,151.868530 289.718384,152.212387 289.038391,152.462875 
	C287.359985,147.966370 286.089417,143.563232 284.818878,139.160095 
	C286.329620,137.524185 287.840393,135.888275 289.723816,133.848846 
	C291.674652,137.453629 291.101868,142.441986 297.156281,142.220871 
	C296.831421,140.229324 296.533020,138.399902 296.192017,136.191269 
	C298.845825,137.029572 301.542206,138.247101 305.062195,139.836502 
	C304.602753,142.732452 303.947998,146.859512 303.209442,151.433868 
	C303.125641,151.881165 302.973297,152.026581 302.973297,152.026581 
z"/>
<path fill="#473933" opacity="1.000000" stroke="none" 
	d="
M262.566803,67.111832 
	C262.347778,68.118614 262.434692,69.038010 262.664124,71.465126 
	C259.551910,69.117462 257.153748,67.308426 254.051086,64.967979 
	C260.543396,63.744526 266.847717,62.556499 273.360046,61.329269 
	C273.320557,58.286053 273.328064,58.564381 268.748840,58.688049 
	C265.757935,58.768822 262.741333,57.898262 259.805298,56.450253 
	C266.495850,56.048534 273.186401,55.646820 279.876953,55.245102 
	C279.985870,55.704403 280.094818,56.163700 280.203735,56.623001 
	C279.276825,57.495419 278.349884,58.367836 277.422974,59.240253 
	C277.530334,59.624184 277.637695,60.008110 277.745087,60.392036 
	C280.835236,59.832813 283.941254,59.347977 287.011230,58.693993 
	C290.250000,58.004040 293.440857,57.204769 296.027374,61.291531 
	C288.050323,60.084194 281.139832,61.419479 274.325500,64.757347 
	C270.948090,66.411697 266.717377,66.323990 262.566803,67.111832 
z"/>
<path fill="#473933" opacity="1.000000" stroke="none" 
	d="
M317.400574,160.794220 
	C316.313934,157.563766 315.816254,154.015549 314.613251,150.725189 
	C313.860321,148.665878 312.045502,146.994781 309.882568,144.012573 
	C309.483032,142.014832 308.754089,138.369827 308.120819,134.321014 
	C319.034973,138.258209 323.492798,150.805237 317.400574,160.794220 
z"/>
<path fill="#262D2A" opacity="1.000000" stroke="none" 
	d="
M438.023804,347.515991 
	C437.604370,348.308167 437.170044,348.764618 436.735718,349.221069 
	C442.309448,352.416626 439.927795,357.952393 441.342010,363.308929 
	C436.768494,363.308929 432.856384,363.308929 428.487732,363.215973 
	C430.992767,357.859589 433.623322,352.535950 432.339905,346.148010 
	C432.264130,345.770782 434.187744,344.393860 434.747192,344.609161 
	C435.981476,345.084137 436.938690,346.279083 438.023804,347.515991 
z"/>
<path fill="#8A6C57" opacity="1.000000" stroke="none" 
	d="
M137.017151,223.016632 
	C139.717834,226.379211 142.418518,229.741776 144.774658,233.443634 
	C139.670502,235.047318 137.939346,238.737289 137.009155,243.333038 
	C137.214828,244.098511 137.410538,244.591751 137.574066,245.444336 
	C137.490646,246.522995 137.439438,247.242340 137.259323,248.101761 
	C136.991989,248.475220 136.952576,248.724396 137.006577,248.994415 
	C137.000946,248.999451 136.990860,249.011230 136.715454,249.021942 
	C134.639954,248.513214 132.668793,248.296799 131.081314,247.400681 
	C128.902985,246.171066 127.015518,244.426147 125.194557,242.693481 
	C126.213799,242.024384 127.041893,241.563873 128.082108,241.405792 
	C130.305725,242.209259 132.317230,242.710297 134.776550,243.322891 
	C133.971176,240.533386 133.472107,238.804825 133.366333,237.079056 
	C135.360092,236.275558 138.348541,235.382523 138.304581,234.679047 
	C138.164276,232.434906 136.897369,230.261200 136.038589,227.731110 
	C135.982941,226.962509 135.954285,226.523102 136.195404,225.863525 
	C136.649170,224.767792 136.833160,223.892212 137.017151,223.016632 
z"/>
<path fill="#262D2A" opacity="1.000000" stroke="none" 
	d="
M284.536652,139.318939 
	C286.089417,143.563232 287.359985,147.966370 288.790558,152.679535 
	C288.457001,155.655853 287.963440,158.322128 287.324310,161.323761 
	C283.749817,162.665573 281.890533,161.096603 281.018463,157.905807 
	C279.200592,151.254379 279.423218,144.961502 284.536652,139.318939 
z"/>
<path fill="#C09D82" opacity="1.000000" stroke="none" 
	d="
M540.975098,143.976593 
	C539.234741,144.971298 537.494385,145.966003 535.476440,146.520630 
	C535.131042,143.093750 535.063171,140.106934 535.142822,136.708649 
	C534.992920,131.509018 534.695618,126.720825 534.547852,121.928009 
	C534.697449,121.923378 534.989868,121.987022 534.994629,121.992775 
	C534.999451,121.998528 535.010742,122.008118 535.029541,122.317932 
	C536.664429,122.781769 538.280518,122.935791 540.115845,123.160660 
	C540.335022,123.231499 540.784119,123.334892 540.900452,123.607109 
	C541.176331,124.965927 541.876526,126.550880 541.408264,127.058754 
	C538.222168,130.514816 539.152893,133.817017 541.194702,137.479004 
	C541.033264,139.822922 541.004150,141.899750 540.975098,143.976593 
z"/>
<path fill="#8A6C57" opacity="1.000000" stroke="none" 
	d="
M160.924438,306.026459 
	C159.721344,311.420990 158.518234,316.815521 157.231262,322.550262 
	C156.987000,322.967773 156.826630,323.045105 155.990448,323.075806 
	C150.284927,324.532593 148.624405,319.445251 145.179642,317.848206 
	C145.544464,317.129822 145.909286,316.411469 146.787354,315.862915 
	C149.521835,315.181274 152.094742,314.777283 153.881363,313.372925 
	C156.522263,311.297150 158.604385,308.510437 160.924438,306.026459 
z"/>
<path fill="#473933" opacity="1.000000" stroke="none" 
	d="
M125.003403,242.902054 
	C127.015518,244.426147 128.902985,246.171066 131.081314,247.400681 
	C132.668793,248.296799 134.639954,248.513214 136.799255,249.395569 
	C137.807953,251.293365 138.457474,252.828262 139.106995,254.363159 
	C136.435242,255.742172 133.763489,257.121185 131.091736,258.500183 
	C131.817657,259.244751 132.543579,259.989288 133.269516,260.733856 
	C131.740677,260.135315 130.211853,259.536774 128.386749,258.822235 
	C130.115601,257.363892 131.645538,256.073334 132.801834,255.097931 
	C130.333603,253.042938 128.265930,249.881134 126.173111,249.864410 
	C121.058083,249.823517 122.218727,246.609451 122.363976,243.399414 
	C123.511650,242.928894 124.257530,242.915466 125.003403,242.902054 
z"/>
<path fill="#8A6C57" opacity="1.000000" stroke="none" 
	d="
M420.054535,379.757751 
	C419.694550,379.498657 419.839142,379.468628 420.318756,379.431335 
	C421.203949,377.393372 422.485046,375.036224 421.843933,373.461700 
	C420.202057,369.429138 421.022888,367.178833 425.175232,366.081696 
	C429.247772,370.220764 430.070343,375.087341 428.310608,380.774445 
	C425.349518,382.730652 422.585480,383.639191 420.054535,379.757751 
z"/>
<path fill="#C09D82" opacity="1.000000" stroke="none" 
	d="
M533.020203,110.808083 
	C539.026733,109.595840 546.059814,115.777679 544.493835,121.438416 
	C542.556702,121.591713 541.261658,121.763969 539.787109,121.730835 
	C537.710876,118.214905 536.663513,122.994728 535.010742,122.008118 
	C535.010742,122.008118 534.999451,121.998528 535.028320,121.607239 
	C534.264038,119.460693 533.470947,117.705429 532.546143,115.651550 
	C532.616272,113.837982 532.818237,112.323029 533.020203,110.808083 
z"/>
<path fill="#473933" opacity="1.000000" stroke="none" 
	d="
M287.383423,162.106430 
	C292.589325,162.233490 297.743256,162.716568 302.345062,163.147888 
	C300.472656,165.628860 298.738647,167.926498 296.990479,170.606384 
	C294.666565,170.219940 292.294952,169.596420 290.062866,168.645355 
	C287.349152,167.489044 285.879425,165.564926 287.383423,162.106430 
z"/>
<path fill="#262D2A" opacity="1.000000" stroke="none" 
	d="
M108.026047,231.107010 
	C109.252731,229.244614 110.276215,227.199158 111.751991,225.561188 
	C114.188377,222.856964 116.261505,222.738068 118.124939,226.553665 
	C118.978264,228.300949 121.156502,229.401199 122.845108,231.282379 
	C122.546570,232.749466 122.136795,233.729080 121.446617,234.695801 
	C120.795868,234.735641 120.425537,234.788376 119.942940,234.488556 
	C118.325066,233.537308 116.819450,232.938660 114.950172,232.263000 
	C112.399689,231.826340 110.212868,231.466675 108.026047,231.107010 
z"/>
<path fill="#262D2A" opacity="1.000000" stroke="none" 
	d="
M135.925629,226.083679 
	C135.954285,226.523102 135.982941,226.962509 135.943115,228.010773 
	C135.565063,229.076447 135.255478,229.533264 134.718231,229.981445 
	C134.490570,229.972778 134.036652,230.012619 133.682144,229.999588 
	C132.479080,230.379333 131.630539,230.772110 130.442017,231.058167 
	C128.712265,230.762482 127.322472,230.573532 125.955643,230.271973 
	C125.978607,230.159332 125.966728,229.929733 125.966721,229.929733 
	C125.474289,227.889206 124.984818,225.847977 124.488762,223.808319 
	C123.626434,220.262695 124.192863,218.124008 129.000671,220.196503 
	C131.620407,222.498764 133.773010,224.291229 135.925629,226.083679 
z"/>
<path fill="#473933" opacity="1.000000" stroke="none" 
	d="
M160.863007,305.663818 
	C158.604385,308.510437 156.522263,311.297150 153.881363,313.372925 
	C152.094742,314.777283 149.521835,315.181274 147.080688,315.745789 
	C146.860794,315.458832 146.899963,315.483032 147.239868,315.295532 
	C152.318695,313.360748 153.164230,309.537384 152.903534,305.124115 
	C155.070114,303.757874 157.236694,302.391632 159.785675,301.060577 
	C160.379227,302.497589 160.590393,303.899384 160.863007,305.663818 
z"/>
<path fill="#473933" opacity="1.000000" stroke="none" 
	d="
M541.294128,143.855911 
	C541.004150,141.899750 541.033264,139.822922 541.512817,137.373322 
	C546.161377,133.100357 545.746643,128.281845 544.783447,123.229164 
	C544.882935,123.123985 545.081970,122.913589 545.081970,122.913589 
	C549.549011,125.398186 548.383667,129.836838 547.512390,133.099350 
	C546.497742,136.898819 543.659851,140.211380 541.294128,143.855911 
z"/>
<path fill="#473933" opacity="1.000000" stroke="none" 
	d="
M532.846436,110.502487 
	C532.818237,112.323029 532.616272,113.837982 532.119385,115.637604 
	C529.203430,116.159401 526.275940,119.415581 524.113281,115.139282 
	C524.241516,112.890633 524.369812,110.641975 524.573730,107.067520 
	C527.764465,108.300400 530.218628,109.248650 532.846436,110.502487 
z"/>
<path fill="#8A6C57" opacity="1.000000" stroke="none" 
	d="
M426.666992,350.325165 
	C427.349884,351.980957 427.837555,353.339600 428.337555,354.732697 
	C422.414734,356.003082 420.083344,354.078339 418.870178,346.157227 
	C421.820770,347.659698 424.146271,348.843872 426.666992,350.325165 
z"/>
<path fill="#C09D82" opacity="1.000000" stroke="none" 
	d="
M232.495667,404.564148 
	C232.822220,407.541443 232.812943,410.307709 232.749969,413.505188 
	C228.144135,412.313293 225.982361,408.811829 225.198364,403.951416 
	C227.572906,403.858643 229.866364,404.105896 232.495667,404.564148 
z"/>
<path fill="#C09D82" opacity="1.000000" stroke="none" 
	d="
M107.800964,231.394440 
	C110.212868,231.466675 112.399689,231.826340 114.684288,232.566620 
	C113.731224,235.351822 112.680382,237.756439 111.392044,240.323914 
	C109.759491,240.723587 108.364418,240.960373 106.969345,241.197174 
	C107.171516,238.025406 107.373695,234.853653 107.800964,231.394440 
z"/>
<path fill="#8A6C57" opacity="1.000000" stroke="none" 
	d="
M524.050781,115.568375 
	C526.275940,119.415581 529.203430,116.159401 532.251099,115.936211 
	C533.470947,117.705429 534.264038,119.460693 535.023499,121.601486 
	C534.989868,121.987022 534.697449,121.923378 534.100647,121.860855 
	C530.697632,122.293808 527.891479,122.789299 525.085266,123.284782 
	C524.925964,123.219475 524.766602,123.154167 524.359070,123.014954 
	C524.070068,120.626518 524.029175,118.311996 524.050781,115.568375 
z"/>
<path fill="#8A6C57" opacity="1.000000" stroke="none" 
	d="
M252.481323,415.929810 
	C251.134323,412.662903 249.607727,409.266541 254.455414,407.188507 
	C256.421997,406.791931 258.051880,406.453430 260.104004,406.040833 
	C260.056152,410.906647 256.632812,413.561676 252.481323,415.929810 
z"/>
<path fill="#BECAD6" opacity="1.000000" stroke="none" 
	d="
M111.629532,240.161041 
	C112.680382,237.756439 113.731224,235.351822 115.047951,232.643616 
	C116.819450,232.938660 118.325066,233.537308 119.656143,234.723938 
	C118.902687,237.756409 118.323769,240.200912 117.744843,242.645416 
	C116.425049,242.696930 115.105255,242.748444 113.237030,242.768372 
	C112.688599,242.736816 112.280716,242.694656 112.178848,242.383850 
	C111.927834,241.435699 111.778679,240.798370 111.629532,240.161041 
z"/>
<path fill="#473933" opacity="1.000000" stroke="none" 
	d="
M306.083954,169.767365 
	C305.178375,167.304825 304.489319,165.025574 303.616028,162.136902 
	C305.790100,162.025818 307.490448,161.938934 309.608826,161.945160 
	C311.461487,163.022705 312.896057,164.007126 315.662567,165.905533 
	C312.060547,167.461868 309.180511,168.706253 306.083954,169.767365 
z"/>
<path fill="#473933" opacity="1.000000" stroke="none" 
	d="
M534.995361,137.120117 
	C535.063171,140.106934 535.131042,143.093750 535.134155,146.470032 
	C533.221375,147.523132 531.373352,148.186783 529.163574,148.507568 
	C529.264160,146.099930 529.726440,144.035110 530.406006,141.748413 
	C532.080566,140.057724 533.537964,138.588928 534.995361,137.120117 
z"/>
<path fill="#C09D82" opacity="1.000000" stroke="none" 
	d="
M121.727028,234.708694 
	C122.136795,233.729080 122.546570,232.749466 123.143326,231.493134 
	C124.032402,230.873886 124.734497,230.531372 125.701660,230.059296 
	C125.966728,229.929733 125.978607,230.159332 125.976913,230.673599 
	C126.606804,234.493042 127.238403,237.798203 127.869995,241.103378 
	C127.041893,241.563873 126.213799,242.024384 125.194550,242.693481 
	C124.257530,242.915466 123.511650,242.928894 122.396309,242.987427 
	C122.026840,243.032562 122.067513,242.910416 122.071060,242.467926 
	C121.958748,239.586517 121.842888,237.147598 121.727028,234.708694 
z"/>
<path fill="#473933" opacity="1.000000" stroke="none" 
	d="
M474.785004,214.609436 
	C473.793365,211.850479 472.913605,209.409988 472.033813,206.969498 
	C481.804565,212.931046 482.506622,214.955444 476.662659,218.841385 
	C476.051788,217.487549 475.474335,216.207733 474.785004,214.609436 
z"/>
<path fill="#C09D82" opacity="1.000000" stroke="none" 
	d="
M136.999191,243.060806 
	C137.939346,238.737289 139.670502,235.047318 144.827972,233.799210 
	C145.525040,235.614212 145.824265,237.412933 145.762573,239.698578 
	C144.533875,240.968094 143.666122,241.750641 142.798370,242.533203 
	C142.798370,242.533203 142.788864,242.708191 142.446381,242.716980 
	C141.073013,242.811310 140.042099,242.896835 138.675598,242.947968 
	C137.893051,242.962646 137.446121,243.011734 136.999191,243.060806 
z"/>
<path fill="#C09D82" opacity="1.000000" stroke="none" 
	d="
M152.005875,333.904236 
	C149.970139,331.149139 147.934402,328.394043 146.346085,325.163879 
	C148.857788,324.799500 150.922058,324.910217 153.080597,325.397980 
	C154.226624,328.692047 155.134750,331.588409 152.005875,333.904236 
z"/>
<path fill="#8A6C57" opacity="1.000000" stroke="none" 
	d="
M152.232697,334.166016 
	C155.134750,331.588409 154.226624,328.692047 153.407242,325.410645 
	C154.468292,325.311584 155.296951,325.576965 156.125595,325.842316 
	C156.731750,329.652374 157.337906,333.462463 157.944046,337.272522 
	C157.687622,337.598633 157.431198,337.924774 157.174774,338.250885 
	C155.603027,336.976501 154.031281,335.702118 152.232697,334.166016 
z"/>
<path fill="#BECAD6" opacity="1.000000" stroke="none" 
	d="
M530.188782,141.970306 
	C529.726440,144.035110 529.264160,146.099930 528.782715,148.503906 
	C527.409485,148.644531 526.055359,148.445999 524.382202,148.114914 
	C524.329163,145.869446 524.595154,143.756546 525.281738,141.205399 
	C526.361389,139.657043 527.020508,138.546906 527.341125,138.006866 
	C528.190247,139.188736 529.189514,140.579529 530.188782,141.970306 
z"/>
<path fill="#262D2A" opacity="1.000000" stroke="none" 
	d="
M112.280716,242.694656 
	C112.280716,242.694656 112.688599,242.736816 112.851387,242.861725 
	C113.014175,246.230545 113.014175,249.474472 113.014175,252.718399 
	C112.540649,252.922394 112.067123,253.126373 111.593597,253.330368 
	C110.047325,250.173370 108.501060,247.016373 107.393753,243.518890 
	C109.315384,243.017166 110.798050,242.855911 112.280716,242.694656 
z"/>
<path fill="#473933" opacity="1.000000" stroke="none" 
	d="
M156.122070,325.514771 
	C155.296951,325.576965 154.468292,325.311584 153.312988,325.033569 
	C150.922058,324.910217 148.857788,324.799500 146.358826,324.791809 
	C145.621109,322.815765 145.318100,320.736694 145.097366,318.252930 
	C148.624405,319.445251 150.284927,324.532593 155.728149,323.126129 
	C156.133972,323.877808 156.126266,324.532532 156.122070,325.514771 
z"/>
<path fill="#8A6C57" opacity="1.000000" stroke="none" 
	d="
M139.426376,254.315826 
	C138.457474,252.828262 137.807953,251.293365 137.074646,249.384857 
	C136.990860,249.011230 137.000946,248.999451 137.308624,249.029327 
	C138.129807,248.750412 138.643341,248.441605 139.554031,248.062241 
	C141.290085,247.995728 142.628983,247.999786 143.967880,248.003845 
	C143.959732,251.035080 143.846909,253.995773 139.426376,254.315826 
z"/>
<path fill="#8A6C57" opacity="1.000000" stroke="none" 
	d="
M152.589661,305.237152 
	C153.164230,309.537384 152.318695,313.360748 147.257233,315.310272 
	C145.277267,310.318237 149.008224,307.955994 152.589661,305.237152 
z"/>
<path fill="#BECAD6" opacity="1.000000" stroke="none" 
	d="
M184.918716,322.480408 
	C183.450241,322.829193 182.016159,322.829193 179.881149,322.829193 
	C180.205399,319.341431 180.486664,316.315796 180.854095,312.363525 
	C182.303009,315.399475 183.308792,317.506927 184.587250,319.825134 
	C184.890976,320.734497 184.922028,321.433075 184.918716,322.480408 
z"/>
<path fill="#8A6C57" opacity="1.000000" stroke="none" 
	d="
M178.315186,334.352386 
	C177.959839,330.276062 177.016815,325.480835 183.945404,324.989319 
	C182.446075,328.049652 180.531021,331.097229 178.315186,334.352386 
z"/>
<path fill="#473933" opacity="1.000000" stroke="none" 
	d="
M136.195404,225.863525 
	C133.773010,224.291229 131.620407,222.498764 129.287170,220.438110 
	C131.595367,220.938049 134.084183,221.706223 136.795074,222.745514 
	C136.833160,223.892212 136.649170,224.767792 136.195404,225.863525 
z"/>
<path fill="#8A6C57" opacity="1.000000" stroke="none" 
	d="
M121.446617,234.695801 
	C121.842888,237.147598 121.958748,239.586517 122.085594,242.405212 
	C120.934593,242.774643 119.772606,242.764282 118.177734,242.699677 
	C118.323769,240.200912 118.902687,237.756409 119.768402,235.076508 
	C120.425537,234.788376 120.795868,234.735641 121.446617,234.695801 
z"/>
<path fill="#262D2A" opacity="1.000000" stroke="none" 
	d="
M143.967697,247.627441 
	C142.628983,247.999786 141.290085,247.995728 139.113113,248.003601 
	C137.979446,247.997574 137.683838,247.979630 137.388214,247.961685 
	C137.439438,247.242340 137.490646,246.522995 137.856369,245.265442 
	C138.450974,244.145615 138.731079,243.563995 139.011200,242.982361 
	C140.042099,242.896835 141.073013,242.811310 142.486877,242.794678 
	C143.235748,244.326065 143.601639,245.788544 143.967697,247.627441 
z"/>
<path fill="#8A6C57" opacity="1.000000" stroke="none" 
	d="
M217.087006,73.142990 
	C217.219467,71.848244 217.087326,70.834747 216.951370,69.792000 
	C221.351852,70.033218 221.351852,70.033218 220.692902,76.267929 
	C219.197784,75.169456 218.010101,74.296852 217.087006,73.142990 
z"/>
<path fill="#8A6C57" opacity="1.000000" stroke="none" 
	d="
M112.178848,242.383850 
	C110.798050,242.855911 109.315384,243.017166 107.383362,243.152679 
	C106.927803,242.697540 106.921593,242.268127 106.942368,241.517944 
	C108.364418,240.960373 109.759491,240.723587 111.392044,240.323914 
	C111.778679,240.798370 111.927834,241.435699 112.178848,242.383850 
z"/>
<path fill="#8A6C57" opacity="1.000000" stroke="none" 
	d="
M143.145081,242.565338 
	C143.666122,241.750641 144.533875,240.968094 145.689545,240.092896 
	C145.148926,240.865997 144.320374,241.731735 143.145081,242.565338 
z"/>
<path fill="#BECAD6" opacity="1.000000" stroke="none" 
	d="
M143.587585,78.524063 
	C143.914948,79.774651 143.987854,80.719666 144.060776,81.664688 
	C143.592911,81.592064 143.125061,81.519440 142.657211,81.446815 
	C142.882523,80.370712 143.107819,79.294601 143.587585,78.524063 
z"/>
<path fill="#BECAD6" opacity="1.000000" stroke="none" 
	d="
M223.939667,73.972641 
	C223.845367,74.786057 223.619156,75.232033 223.392944,75.678009 
	C223.184784,74.491814 222.976624,73.305626 222.768478,72.119431 
	C223.114914,72.614685 223.461334,73.109940 223.939667,73.972641 
z"/>
<path fill="#473933" opacity="1.000000" stroke="none" 
	d="
M539.966614,121.936226 
	C541.261658,121.763969 542.556702,121.591713 544.233887,121.480621 
	C544.704102,121.766983 544.792114,121.992195 544.981079,122.565506 
	C545.081970,122.913589 544.882935,123.123985 544.396973,123.165756 
	C542.868652,123.249985 541.826416,123.292442 540.784119,123.334892 
	C540.784119,123.334892 540.335022,123.231499 540.121460,122.871460 
	C539.927551,122.319679 539.947083,122.127953 539.966614,121.936226 
z"/>
<path fill="#473933" opacity="1.000000" stroke="none" 
	d="
M298.214539,171.450317 
	C299.071106,171.226868 300.175507,171.170853 301.632111,171.347885 
	C300.810333,171.593216 299.636353,171.605484 298.214539,171.450317 
z"/>
<path fill="#BECAD6" opacity="1.000000" stroke="none" 
	d="
M387.607605,142.172333 
	C388.272461,142.356293 388.659912,142.683044 388.987457,143.061630 
	C389.019196,143.098358 388.680267,143.455780 388.513397,143.664337 
	C388.113434,143.219406 387.713440,142.774490 387.607605,142.172333 
z"/>
<path fill="#BECAD6" opacity="1.000000" stroke="none" 
	d="
M513.286621,206.232544 
	C513.980164,206.145050 514.402527,206.280182 514.824951,206.415344 
	C514.369019,206.849609 513.913086,207.283875 513.457153,207.718140 
	C513.309937,207.297150 513.162659,206.876160 513.286621,206.232544 
z"/>
<path fill="#BECAD6" opacity="1.000000" stroke="none" 
	d="
M143.186432,256.738464 
	C142.414215,256.860840 141.877884,256.786285 141.341537,256.711731 
	C141.387466,256.485809 141.433395,256.259857 141.479309,256.033936 
	C142.126984,256.203125 142.774643,256.372345 143.186432,256.738464 
z"/>
<path fill="#BECAD6" opacity="1.000000" stroke="none" 
	d="
M369.035217,132.173248 
	C369.487976,131.855362 369.943939,131.883911 370.399872,131.912460 
	C370.370087,132.265854 370.340302,132.619232 370.310516,132.972626 
	C369.886475,132.821655 369.462433,132.670670 369.035217,132.173248 
z"/>
<path fill="#BECAD6" opacity="1.000000" stroke="none" 
	d="
M501.649841,253.741455 
	C501.363403,253.328552 501.379028,252.794205 501.394653,252.259872 
	C501.797485,252.338196 502.200256,252.416519 502.603027,252.494812 
	C502.385986,252.869888 502.168945,253.244965 501.649841,253.741455 
z"/>
<path fill="#473933" opacity="1.000000" stroke="none" 
	d="
M161.006714,323.497406 
	C161.286438,323.160950 161.566727,323.250977 161.774261,323.821350 
	C161.493271,324.034912 161.261856,323.908966 161.006714,323.497406 
z"/>
<path fill="#473933" opacity="1.000000" stroke="none" 
	d="
M259.489319,59.513641 
	C259.475464,59.484268 259.503174,59.543015 259.489319,59.513641 
z"/>
<path fill="#121212" opacity="1.000000" stroke="none" 
	d="
M425.035675,365.698059 
	C421.022888,367.178833 420.202057,369.429138 421.843933,373.461700 
	C422.485046,375.036224 421.203949,377.393372 420.352905,379.447540 
	C418.208344,378.023804 416.197937,376.778870 414.882263,375.015564 
	C412.852020,372.294556 412.493256,369.136017 415.079041,366.475891 
	C417.940704,363.532043 421.169922,361.829041 425.035675,365.698059 
z"/>
<path fill="#BECAD6" opacity="1.000000" stroke="none" 
	d="
M290.656860,151.640793 
	C291.654205,149.201324 293.045715,146.877991 294.435699,144.557205 
	C296.827850,146.831772 298.987732,148.885468 301.147827,151.260956 
	C297.782410,151.640808 294.416748,151.698868 290.656860,151.640793 
z"/>
<path fill="#473933" opacity="1.000000" stroke="none" 
	d="
M303.200653,151.807281 
	C303.430481,152.223068 303.585266,152.712753 303.740082,153.202438 
	C303.490387,152.988083 303.240692,152.773743 302.982147,152.292999 
	C302.973297,152.026581 303.125641,151.881165 303.200653,151.807281 
z"/>
<path fill="#C2E850" opacity="1.000000" stroke="none" 
	d="
M395.417908,288.786865 
	C389.331940,290.968658 383.812927,290.754913 379.187561,286.520660 
	C375.497314,283.142517 374.358063,278.602539 375.338806,273.725891 
	C376.678101,267.066681 381.305969,263.213989 387.861053,262.993958 
	C395.662262,262.732086 400.276855,265.768829 402.306702,272.500275 
	C404.251617,278.950104 401.886414,284.785767 395.417908,288.786865 
M396.938843,281.096069 
	C398.906311,276.677368 398.498413,272.651031 394.754669,269.344757 
	C391.859467,266.787903 388.529327,266.224121 385.065887,268.086914 
	C381.122894,270.207611 378.853729,273.851410 380.272461,277.980988 
	C381.271606,280.889252 383.917145,283.952057 386.646423,285.372253 
	C390.469818,287.361755 393.968689,285.043274 396.938843,281.096069 
z"/>
<path fill="#BBDCF7" opacity="1.000000" stroke="none" 
	d="
M530.406006,141.748413 
	C529.189514,140.579529 528.190247,139.188736 527.341125,138.006866 
	C527.020508,138.546906 526.361389,139.657043 525.380493,140.819702 
	C525.032837,135.308868 525.007019,129.745514 525.033203,123.733475 
	C527.891479,122.789299 530.697632,122.293808 533.951050,121.865479 
	C534.695618,126.720825 534.992920,131.509018 535.142822,136.708664 
	C533.537964,138.588928 532.080566,140.057724 530.406006,141.748413 
z"/>
<path fill="#473933" opacity="1.000000" stroke="none" 
	d="
M512.151917,126.402954 
	C514.421509,126.667267 516.546875,127.232582 518.672302,127.797897 
	C518.625061,128.434433 518.577820,129.070984 518.530640,129.707520 
	C516.437012,129.915985 514.343384,130.124451 512.249756,130.332916 
	C512.169067,129.123260 512.088379,127.913612 512.151917,126.402954 
z"/>
<path fill="#BECAD6" opacity="1.000000" stroke="none" 
	d="
M128.082108,241.405792 
	C127.238403,237.798203 126.606804,234.493042 125.953949,230.786224 
	C127.322472,230.573532 128.712265,230.762482 130.470978,231.410751 
	C131.550964,233.605469 132.261993,235.340881 132.973038,237.076279 
	C133.472107,238.804825 133.971176,240.533386 134.776550,243.322891 
	C132.317230,242.710297 130.305725,242.209259 128.082108,241.405792 
z"/>
<path fill="#C09D82" opacity="1.000000" stroke="none" 
	d="
M133.366333,237.079056 
	C132.261993,235.340881 131.550964,233.605469 130.810959,231.517487 
	C131.630539,230.772110 132.479080,230.379333 133.734833,230.209824 
	C134.409988,230.285416 134.677933,230.137741 134.945892,229.990082 
	C135.255478,229.533264 135.565063,229.076447 135.970123,228.339951 
	C136.897369,230.261200 138.164276,232.434906 138.304581,234.679047 
	C138.348541,235.382523 135.360092,236.275558 133.366333,237.079056 
z"/>
<path fill="#473933" opacity="1.000000" stroke="none" 
	d="
M138.675598,242.947968 
	C138.731079,243.563995 138.450974,244.145615 137.888565,244.906128 
	C137.410538,244.591751 137.214828,244.098511 137.009155,243.333038 
	C137.446121,243.011734 137.893051,242.962646 138.675598,242.947968 
z"/>
<path fill="#473933" opacity="1.000000" stroke="none" 
	d="
M137.259323,248.101761 
	C137.683838,247.979630 137.979446,247.997574 138.715958,248.074158 
	C138.643341,248.441605 138.129807,248.750412 137.314240,249.024292 
	C136.952576,248.724396 136.991989,248.475220 137.259323,248.101761 
z"/>
<path fill="#8A6C57" opacity="1.000000" stroke="none" 
	d="
M540.900452,123.607109 
	C541.826416,123.292442 542.868652,123.249985 544.297485,123.270935 
	C545.746643,128.281845 546.161377,133.100357 541.645142,137.106216 
	C539.152893,133.817017 538.222168,130.514816 541.408264,127.058754 
	C541.876526,126.550880 541.176331,124.965927 540.900452,123.607109 
z"/>
<path fill="#8A6C57" opacity="1.000000" stroke="none" 
	d="
M539.787109,121.730835 
	C539.947083,122.127953 539.927551,122.319679 539.902283,122.800613 
	C538.280518,122.935791 536.664429,122.781769 535.029541,122.317932 
	C536.663513,122.994728 537.710876,118.214905 539.787109,121.730835 
z"/>
<path fill="#473933" opacity="1.000000" stroke="none" 
	d="
M134.718231,229.981430 
	C134.677933,230.137741 134.409988,230.285416 134.089340,230.222855 
	C134.036652,230.012619 134.490570,229.972778 134.718231,229.981430 
z"/>
<path fill="#A0C627" opacity="1.000000" stroke="none" 
	d="
M396.737885,281.431061 
	C393.968689,285.043274 390.469818,287.361755 386.646423,285.372253 
	C383.917145,283.952057 381.271606,280.889252 380.272461,277.980988 
	C378.853729,273.851410 381.122894,270.207611 385.065887,268.086914 
	C388.529327,266.224121 391.859467,266.787903 394.754669,269.344757 
	C398.498413,272.651031 398.906311,276.677368 396.737885,281.431061 
M390.512177,275.702148 
	C390.620331,275.128357 390.728485,274.554565 390.682434,273.328766 
	C389.059448,273.262329 387.436462,273.195892 385.246735,273.496216 
	C385.197754,275.441284 385.148743,277.386383 385.099762,279.331482 
	C386.392883,279.345398 387.685974,279.359344 389.585938,278.940277 
	C389.730011,277.976471 389.874084,277.012695 390.512177,275.702148 
z"/>
<path fill="#8A6C57" opacity="1.000000" stroke="none" 
	d="
M388.979095,279.373291 
	C387.685974,279.359344 386.392883,279.345398 385.099762,279.331482 
	C385.148743,277.386383 385.197754,275.441284 385.699402,273.616760 
	C387.094421,275.615936 388.036774,277.494598 388.979095,279.373291 
z"/>
<path fill="#262D2A" opacity="1.000000" stroke="none" 
	d="
M389.282532,279.156769 
	C388.036774,277.494598 387.094421,275.615936 385.982788,273.433380 
	C387.436462,273.195892 389.059448,273.262329 390.531738,273.708618 
	C390.260071,274.741974 390.139130,275.395416 390.018188,276.048889 
	C389.874084,277.012695 389.730011,277.976471 389.282532,279.156769 
z"/>
<path fill="#473933" opacity="1.000000" stroke="none" 
	d="
M390.265198,275.875519 
	C390.139130,275.395416 390.260071,274.741974 390.608856,274.034637 
	C390.728485,274.554565 390.620331,275.128357 390.265198,275.875519 
z"/>
</svg>