<svg width="13" height="16" viewBox="0 0 13 16" fill="none" xmlns="http://www.w3.org/2000/svg">
<path d="M12.818 5.48577C12.0894 2.28006 9.29305 0.836792 6.83673 0.836792C6.83673 0.836792 6.83673 0.836792 6.82979 0.836792C4.3804 0.836792 1.57714 2.27312 0.848564 5.47883C0.0367274 9.05924 2.22938 12.0915 4.21387 13.9996C4.94938 14.7074 5.89305 15.0613 6.83673 15.0613C7.7804 15.0613 8.72407 14.7074 9.45265 13.9996C11.4371 12.0915 13.6298 9.06618 12.818 5.48577ZM6.83673 8.9621C5.62938 8.9621 4.65101 7.98373 4.65101 6.77638C4.65101 5.56904 5.62938 4.59067 6.83673 4.59067C8.04407 4.59067 9.02244 5.56904 9.02244 6.77638C9.02244 7.98373 8.04407 8.9621 6.83673 8.9621Z" fill="#A3CD27"/>
</svg>
